<?xml version="1.0" encoding="UTF-8"?>
<svg width="24" height="24" viewBox="0 0 24 24" fill="none" xmlns="http://www.w3.org/2000/svg">
  <path d="M12 22C10.4983 22 9.13373 21.5551 8 20.8061V21C8 21.5523 7.55228 22 7 22C6.44772 22 6 21.5523 6 21V18.8504C6 18.4234 6.27816 18.0459 6.6822 17.9228C8.02757 17.5844 9 16.3863 9 15C9 14.4477 9.44772 14 10 14C10.5523 14 11 14.4477 11 15V19C11 19.5523 11.4477 20 12 20C12.5523 20 13 19.5523 13 19V13C13 12.4477 13.4477 12 14 12C14.5523 12 15 12.4477 15 13V16C15 16.5523 15.4477 17 16 17C16.5523 17 17 16.5523 17 16V9.82929C17 9.41745 16.8468 9.02133 16.5713 8.73242L15.1603 7.26383C14.4003 6.46991 14 5.41999 14 4.33313V3.71753C14 2.44046 13.2549 1.27708 12.0732 0.770274C11.5359 0.55102 11.2313 0.00752863 11.45 -0.529708C11.6687 -1.06694 12.2126 -1.37112 12.7499 -1.15186C14.8069 -0.299813 16 1.5933 16 3.71753V4.33313C16 4.86656 16.2001 5.37998 16.5603 5.76383L17.9713 7.23242C18.6318 7.9206 19 8.85755 19 9.82929V16C19 17.6569 17.6569 19 16 19C15.8252 19 15.6551 18.9835 15.4915 18.9521C15.2186 20.1691 14.1785 21.0766 12.9218 21.0988C12.6153 21.1069 12.3126 21.0677 12.0226 20.9883C12.0151 20.9925 12.0075 20.9966 12 22Z" fill="currentColor"/>
</svg>
